{
	"asset":{
		"generator":"Khronos glTF Blender I/O v3.6.28",
		"version":"2.0"
	},
	"scene":0,
	"scenes":[
		{
			"name":"Scene",
			"nodes":[
				0
			]
		}
	],
	"nodes":[
		{
			"mesh":0,
			"name":"2K12Kub",
			"translation":[
				0,
				-0.35211917757987976,
				0
			]
		}
	],
	"materials":[
		{
			"doubleSided":true,
			"name":"Default OBJ",
			"pbrMetallicRoughness":{
				"baseColorFactor":[
					0.800000011920929,
					0.800000011920929,
					0.800000011920929,
					1
				],
				"metallicFactor":0,
				"roughnessFactor":0.5
			}
		}
	],
	"meshes":[
		{
			"name":"2K12Kub",
			"primitives":[
				{
					"attributes":{
						"POSITION":0,
						"NORMAL":1,
						"TEXCOORD_0":2
					},
					"indices":3,
					"material":0
				}
			]
		}
	],
	"accessors":[
		{
			"bufferView":0,
			"componentType":5126,
			"count":12883,
			"max":[
				0.2165096253156662,
				0.7279849648475647,
				0.5006029605865479
			],
			"min":[
				-0.23214448988437653,
				-0.0005519339465536177,
				-0.4395112693309784
			],
			"type":"VEC3"
		},
		{
			"bufferView":1,
			"componentType":5126,
			"count":12883,
			"type":"VEC3"
		},
		{
			"bufferView":2,
			"componentType":5126,
			"count":12883,
			"type":"VEC2"
		},
		{
			"bufferView":3,
			"componentType":5123,
			"count":28062,
			"type":"SCALAR"
		}
	],
	"bufferViews":[
		{
			"buffer":0,
			"byteLength":154596,
			"byteOffset":0,
			"target":34962
		},
		{
			"buffer":0,
			"byteLength":154596,
			"byteOffset":154596,
			"target":34962
		},
		{
			"buffer":0,
			"byteLength":103064,
			"byteOffset":309192,
			"target":34962
		},
		{
			"buffer":0,
			"byteLength":56124,
			"byteOffset":412256,
			"target":34963
		}
	],
	"buffers":[
		{
			"byteLength":468380,
			"uri":"SA6.bin"
		}
	]
}
