{
  "accessors": [
    {
      "bufferView": 2,
      "componentType": 5126,
      "count": 775,
      "max": [
        210.1353759765625,
        135.15139770507812,
        34.56779861450195
      ],
      "min": [
        -205.43020629882812,
        -135.15139770507812,
        -16.20829963684082
      ],
      "type": "VEC3"
    },
    {
      "bufferView": 2,
      "byteOffset": 9300,
      "componentType": 5126,
      "count": 775,
      "max": [
        0.9983401298522949,
        0.99929279088974,
        0.9996253848075867
      ],
      "min": [
        -0.9983417391777039,
        -0.9992930293083191,
        -0.9997200965881348
      ],
      "type": "VEC3"
    },
    {
      "bufferView": 3,
      "componentType": 5126,
      "count": 775,
      "max": [
        0.9998939633369446,
        0.9997456669807434,
        0.9990692138671875,
        1
      ],
      "min": [
        -0.9995256662368774,
        -0.999189019203186,
        -0.9989668726921082,
        -1
      ],
      "type": "VEC4"
    },
    {
      "bufferView": 1,
      "componentType": 5126,
      "count": 775,
      "max": [
        0.992035984992981,
        0.9944490194320679
      ],
      "min": [
        0.015768999233841896,
        0.015069999732077122
      ],
      "type": "VEC2"
    },
    {
      "bufferView": 0,
      "componentType": 5125,
      "count": 2382,
      "type": "SCALAR"
    },
    {
      "bufferView": 2,
      "byteOffset": 18600,
      "componentType": 5126,
      "count": 618,
      "max": [
        210.1353759765625,
        134.94061279296875,
        34.56779861450195
      ],
      "min": [
        -205.43020629882812,
        -134.94061279296875,
        -20.574399948120117
      ],
      "type": "VEC3"
    },
    {
      "bufferView": 2,
      "byteOffset": 26016,
      "componentType": 5126,
      "count": 618,
      "max": [
        0.2330280989408493,
        1,
        0.6939012408256531
      ],
      "min": [
        -0.6054540276527405,
        -1,
        -0.9997596144676208
      ],
      "type": "VEC3"
    },
    {
      "bufferView": 3,
      "byteOffset": 12400,
      "componentType": 5126,
      "count": 618,
      "max": [
        0.9997571110725403,
        0.7250033020973206,
        0.8344073295593262,
        1
      ],
      "min": [
        -0.9989268779754639,
        -0.9332970380783081,
        -0.7970743179321289,
        -1
      ],
      "type": "VEC4"
    },
    {
      "bufferView": 1,
      "byteOffset": 6200,
      "componentType": 5126,
      "count": 618,
      "max": [
        1.9933710098266602,
        0.9765130281448364
      ],
      "min": [
        1.0234179496765137,
        0.017921000719070435
      ],
      "type": "VEC2"
    },
    {
      "bufferView": 0,
      "byteOffset": 9528,
      "componentType": 5125,
      "count": 1746,
      "type": "SCALAR"
    }
  ],
  "asset": {
    "extras": {
      "author": "karelkiers (https://sketchfab.com/karelkiers)",
      "license": "CC-BY-4.0 (http://creativecommons.org/licenses/by/4.0/)",
      "source": "https://sketchfab.com/3d-models/lockheed-f-117-nighthawk-d2c544381f8444ad8628cd3bb0665e29",
      "title": "Lockheed F-117 - Nighthawk"
    },
    "generator": "Sketchfab-15.30.0",
    "version": "2.0"
  },
  "bufferViews": [
    {
      "buffer": 0,
      "byteLength": 16512,
      "name": "floatBufferViews",
      "target": 34963,
      "byteOffset": 0
    },
    {
      "buffer": 0,
      "byteLength": 11144,
      "byteOffset": 16512,
      "byteStride": 8,
      "name": "floatBufferViews",
      "target": 34962
    },
    {
      "buffer": 0,
      "byteLength": 33432,
      "byteOffset": 27656,
      "byteStride": 12,
      "name": "floatBufferViews",
      "target": 34962
    },
    {
      "buffer": 0,
      "byteLength": 22288,
      "byteOffset": 61088,
      "byteStride": 16,
      "name": "floatBufferViews",
      "target": 34962
    }
  ],
  "buffers": [
    {
      "uri": "f117a_data.bin",
      "byteLength": 83376
    }
  ],
  "images": [
    {
      "uri": "f117a_img0.png"
    },
    {
      "uri": "f117a_img1.png"
    },
    {
      "uri": "f117a_img2.png"
    },
    {
      "uri": "f117a_img3.png"
    },
    {
      "uri": "f117a_img4.png"
    },
    {
      "uri": "f117a_img5.png"
    }
  ],
  "materials": [
    {
      "doubleSided": true,
      "name": "UDIM1SG",
      "normalTexture": {
        "index": 2
      },
      "occlusionTexture": {
        "index": 1
      },
      "pbrMetallicRoughness": {
        "baseColorTexture": {
          "index": 0
        },
        "metallicRoughnessTexture": {
          "index": 1
        }
      }
    },
    {
      "doubleSided": true,
      "name": "UDIM2SG",
      "normalTexture": {
        "index": 5
      },
      "occlusionTexture": {
        "index": 4
      },
      "pbrMetallicRoughness": {
        "baseColorTexture": {
          "index": 3
        },
        "metallicRoughnessTexture": {
          "index": 4
        }
      }
    }
  ],
  "meshes": [
    {
      "name": "Object_0",
      "primitives": [
        {
          "attributes": {
            "NORMAL": 1,
            "POSITION": 0,
            "TANGENT": 2,
            "TEXCOORD_0": 3
          },
          "indices": 4,
          "material": 0,
          "mode": 4
        }
      ]
    },
    {
      "name": "Object_1",
      "primitives": [
        {
          "attributes": {
            "NORMAL": 6,
            "POSITION": 5,
            "TANGENT": 7,
            "TEXCOORD_0": 8
          },
          "indices": 9,
          "material": 1,
          "mode": 4
        }
      ]
    }
  ],
  "nodes": [
    {
      "children": [
        1
      ],
      "matrix": [
        1,
        0,
        0,
        0,
        0,
        2.220446049250313e-16,
        -1,
        0,
        0,
        1,
        2.220446049250313e-16,
        0,
        0,
        0,
        0,
        1
      ],
      "name": "Sketchfab_model"
    },
    {
      "children": [
        2,
        3
      ],
      "name": "nighthawk.obj.cleaner.materialmerger.gles"
    },
    {
      "mesh": 0,
      "name": "Object_2"
    },
    {
      "mesh": 1,
      "name": "Object_3"
    }
  ],
  "samplers": [
    {
      "magFilter": 9729,
      "minFilter": 9987,
      "wrapS": 10497,
      "wrapT": 10497
    }
  ],
  "scene": 0,
  "scenes": [
    {
      "name": "Sketchfab_Scene",
      "nodes": [
        0
      ]
    }
  ],
  "textures": [
    {
      "sampler": 0,
      "source": 0
    },
    {
      "sampler": 0,
      "source": 1
    },
    {
      "sampler": 0,
      "source": 2
    },
    {
      "sampler": 0,
      "source": 3
    },
    {
      "sampler": 0,
      "source": 4
    },
    {
      "sampler": 0,
      "source": 5
    }
  ]
}