ply
format ascii 1.0
comment Created by Blender 2.66 (sub 1) - www.blender.org, source file: 'untitled.blend'
element vertex 224
property float x
property float y
property float z
property float nx
property float ny
property float nz
property float s
property float t
element face 94
property list uchar uint vertex_indices
end_header
0.343202 -0.828561 12.242644 -0.471397 0.881921 -0.000000 0.828162 0.594764
0.498252 -0.745685 12.242644 -0.471397 0.881921 -0.000000 0.813754 0.587063
0.498252 -0.745685 11.498417 -0.471397 0.881921 -0.000000 0.813754 0.587063
0.343202 -0.828561 11.498417 -0.471397 0.881921 -0.000000 0.828162 0.594764
0.831470 -0.555569 12.242644 -0.000000 0.000000 1.000000 0.782791 0.569396
0.923880 -0.382682 12.242644 -0.000000 0.000000 1.000000 0.774204 0.553331
0.828563 -0.343201 12.242644 -0.000000 0.000000 1.000000 0.783061 0.549663
0.745687 -0.498251 12.242644 -0.000000 0.000000 1.000000 0.790762 0.564070
1.000001 0.000001 12.242644 -0.000000 0.000000 1.000000 0.767130 0.517771
0.980786 0.195091 12.242644 -0.000000 0.000000 1.000000 0.768916 0.499643
0.879597 0.174964 12.242644 -0.000000 0.000000 1.000000 0.778319 0.501513
0.896830 0.000001 12.242644 -0.000000 0.000000 1.000000 0.776717 0.517771
0.831470 0.555571 12.242644 -0.000000 -0.000000 1.000000 0.782791 0.466146
0.707108 0.707108 12.242644 -0.000000 -0.000000 1.000000 0.794347 0.452065
0.634155 0.634155 12.242644 -0.000000 -0.000000 1.000000 0.801126 0.458844
0.745687 0.498252 12.242644 -0.000000 -0.000000 1.000000 0.790762 0.471473
0.382684 0.923880 12.242644 0.000000 -0.000000 1.000000 0.824493 0.431922
0.195091 0.980786 12.242644 0.000000 -0.000000 1.000000 0.841925 0.426634
0.174964 0.879597 12.242644 0.000000 -0.000000 1.000000 0.843795 0.436037
0.343202 0.828563 12.242644 0.000000 -0.000000 1.000000 0.828162 0.440779
-0.195088 0.980786 12.242644 0.000000 -0.000000 1.000000 0.878181 0.426634
-0.382681 0.923881 12.242644 0.000000 -0.000000 1.000000 0.895613 0.431922
-0.343199 0.828563 12.242644 0.000000 -0.000000 1.000000 0.891944 0.440779
-0.174960 0.879598 12.242644 0.000000 -0.000000 1.000000 0.876311 0.436037
-0.707105 0.707108 12.242644 0.000000 -0.000000 1.000000 0.925759 0.452065
-0.831468 0.555572 12.242644 0.000000 -0.000000 1.000000 0.937315 0.466146
-0.745685 0.498253 12.242644 0.000000 -0.000000 1.000000 0.929344 0.471473
-0.634152 0.634156 12.242644 0.000000 -0.000000 1.000000 0.918980 0.458844
-0.980784 0.195092 12.242644 0.000000 0.000000 1.000000 0.951190 0.499643
-0.999999 0.000002 12.242644 0.000000 0.000000 1.000000 0.952976 0.517771
-0.896828 0.000002 12.242644 0.000000 0.000000 1.000000 0.943389 0.517771
-0.879596 0.174964 12.242644 0.000000 0.000000 1.000000 0.941787 0.501513
-0.923879 -0.382682 12.242644 0.000000 0.000000 1.000000 0.945903 0.553331
-0.831469 -0.555569 12.242644 0.000000 0.000000 1.000000 0.937315 0.569396
-0.745686 -0.498250 12.242644 0.000000 0.000000 1.000000 0.929344 0.564070
-0.828561 -0.343200 12.242644 0.000000 0.000000 1.000000 0.937045 0.549663
-0.555570 -0.831468 12.242644 0.000000 0.000000 1.000000 0.911678 0.595034
-0.382683 -0.923878 12.242644 0.000000 0.000000 1.000000 0.895613 0.603621
-0.343201 -0.828561 12.242644 0.000000 0.000000 1.000000 0.891944 0.594764
-0.498251 -0.745685 12.242644 0.000000 0.000000 1.000000 0.906352 0.587063
0.000001 -0.999999 12.242644 0.000000 0.000000 1.000000 0.860053 0.610694
0.195091 -0.980784 12.242644 0.000000 0.000000 1.000000 0.841925 0.608909
0.174963 -0.879596 12.242644 0.000000 0.000000 1.000000 0.843795 0.599506
0.000001 -0.896828 12.242644 0.000000 0.000000 1.000000 0.860053 0.601107
0.555571 -0.831469 12.242644 -0.000000 0.000000 1.000000 0.808428 0.595034
0.707108 -0.707106 12.242644 -0.000000 0.000000 1.000000 0.794347 0.583478
0.634155 -0.634153 12.242644 -0.000000 0.000000 1.000000 0.801126 0.576699
0.498252 -0.745685 12.242644 -0.000000 0.000000 1.000000 0.813754 0.587063
0.980786 -0.195089 12.242644 -0.000000 0.000000 1.000000 0.768916 0.535900
0.879597 -0.174962 12.242644 -0.000000 0.000000 1.000000 0.778319 0.534029
0.923880 0.382684 12.242644 -0.000000 0.000000 1.000000 0.774204 0.482211
0.828563 0.343202 12.242644 -0.000000 0.000000 1.000000 0.783061 0.485880
0.555571 0.831470 12.242644 -0.000000 -0.000000 1.000000 0.808428 0.440509
0.498252 0.745687 12.242644 -0.000000 -0.000000 1.000000 0.813754 0.448480
0.000001 1.000001 12.242644 0.000000 -0.000000 1.000000 0.860053 0.424849
0.000001 0.896830 12.242644 0.000000 -0.000000 1.000000 0.860053 0.434436
-0.555568 0.831471 12.242644 0.000000 -0.000000 1.000000 0.911678 0.440509
-0.498250 0.745688 12.242644 0.000000 -0.000000 1.000000 0.906352 0.448480
-0.923878 0.382685 12.242644 0.000000 0.000000 1.000000 0.945902 0.482211
-0.828561 0.343203 12.242644 0.000000 0.000000 1.000000 0.937045 0.485880
-0.980785 -0.195089 12.242644 0.000000 0.000000 1.000000 0.951190 0.535900
-0.879596 -0.174961 12.242644 0.000000 0.000000 1.000000 0.941787 0.534029
-0.707106 -0.707106 12.242644 0.000000 0.000000 1.000000 0.925759 0.583478
-0.634153 -0.634153 12.242644 0.000000 0.000000 1.000000 0.918980 0.576699
-0.195090 -0.980784 12.242644 0.000000 0.000000 1.000000 0.878181 0.608909
-0.174962 -0.879596 12.242644 0.000000 0.000000 1.000000 0.876311 0.599506
0.382684 -0.923879 12.242644 0.000000 0.000000 1.000000 0.824493 0.603621
0.343202 -0.828561 12.242644 0.000000 0.000000 1.000000 0.828162 0.594764
0.174963 0.879597 11.498417 -0.000000 0.000000 1.000000 0.843795 0.436037
0.000001 0.896830 11.498417 -0.000000 0.000000 1.000000 0.860053 0.434436
-0.174960 0.879598 11.498417 -0.000000 0.000000 1.000000 0.876311 0.436037
-0.343200 0.828563 11.498417 -0.000000 0.000000 1.000000 0.891944 0.440779
0.343202 0.828563 11.498417 0.000000 -0.000000 1.000000 0.828162 0.440779
-0.498250 0.745687 11.498417 0.000000 -0.000000 1.000000 0.906352 0.448480
0.498252 0.745687 11.498417 0.000000 0.000000 1.000000 0.813754 0.448480
-0.634152 0.634155 11.498417 0.000000 -0.000000 1.000000 0.918980 0.458844
0.634155 0.634155 11.498417 0.000000 0.000000 1.000000 0.801126 0.458844
-0.745685 0.498253 11.498417 0.000000 -0.000000 1.000000 0.929344 0.471473
0.745687 0.498252 11.498417 0.000000 0.000000 1.000000 0.790762 0.471473
-0.828561 0.343203 11.498417 0.000000 -0.000000 1.000000 0.937045 0.485880
0.828563 0.343202 11.498417 0.000000 0.000000 1.000000 0.783061 0.485880
-0.879596 0.174964 11.498417 0.000000 -0.000000 1.000000 0.941787 0.501513
0.879597 0.174964 11.498417 0.000000 0.000000 1.000000 0.778319 0.501513
-0.896828 0.000002 11.498417 0.000000 -0.000000 1.000000 0.943389 0.517771
0.896830 0.000001 11.498417 0.000000 0.000000 1.000000 0.776717 0.517771
-0.879596 -0.174961 11.498417 0.000000 0.000000 1.000000 0.941787 0.534029
0.879597 -0.174962 11.498417 0.000000 0.000000 1.000000 0.778319 0.534029
-0.828561 -0.343200 11.498417 0.000000 0.000000 1.000000 0.937045 0.549663
0.828563 -0.343201 11.498417 0.000000 0.000000 1.000000 0.783061 0.549663
-0.745686 -0.498250 11.498417 0.000000 0.000000 1.000000 0.929344 0.564070
0.745687 -0.498251 11.498417 0.000000 0.000000 1.000000 0.790762 0.564070
-0.634153 -0.634153 11.498417 0.000000 0.000000 1.000000 0.918980 0.576699
0.634155 -0.634153 11.498417 0.000000 0.000000 1.000000 0.801126 0.576699
-0.498251 -0.745685 11.498417 0.000000 0.000000 1.000000 0.906352 0.587063
0.498252 -0.745685 11.498417 0.000000 0.000000 1.000000 0.813754 0.587063
-0.343201 -0.828561 11.498417 0.000000 0.000000 1.000000 0.891944 0.594764
0.343202 -0.828561 11.498417 0.000000 0.000000 1.000000 0.828162 0.594764
-0.174962 -0.879596 11.498417 0.000000 0.000000 1.000000 0.876311 0.599506
0.174963 -0.879596 11.498417 0.000000 0.000000 1.000000 0.843795 0.599506
0.000001 -0.896828 11.498417 0.000000 0.000000 1.000000 0.860053 0.601107
0.745687 -0.498251 12.242644 -0.881921 0.471396 0.000000 0.790762 0.564070
0.828563 -0.343201 12.242644 -0.881921 0.471396 0.000000 0.783061 0.549663
0.828563 -0.343201 11.498417 -0.881921 0.471396 0.000000 0.783061 0.549663
0.745687 -0.498251 11.498417 -0.881921 0.471396 0.000000 0.790762 0.564070
0.896830 0.000001 12.242644 -0.995185 -0.098017 0.000000 0.776717 0.517771
0.879597 0.174964 12.242644 -0.995185 -0.098017 0.000000 0.778319 0.501513
0.879597 0.174964 11.498417 -0.995185 -0.098017 0.000000 0.778319 0.501513
0.896830 0.000001 11.498417 -0.995185 -0.098017 0.000000 0.776717 0.517771
0.745687 0.498252 12.242644 -0.773010 -0.634393 0.000000 0.790762 0.471473
0.634155 0.634155 12.242644 -0.773010 -0.634393 0.000000 0.801126 0.458844
0.634155 0.634155 11.498417 -0.773010 -0.634393 0.000000 0.801126 0.458844
0.745687 0.498252 11.498417 -0.773010 -0.634393 0.000000 0.790762 0.471473
0.343202 0.828563 12.242644 -0.290285 -0.956940 0.000000 0.828162 0.440779
0.174964 0.879597 12.242644 -0.290285 -0.956940 0.000000 0.843795 0.436037
0.174963 0.879597 11.498417 -0.290285 -0.956940 0.000000 0.843795 0.436037
0.343202 0.828563 11.498417 -0.290285 -0.956940 0.000000 0.828162 0.440779
-0.174960 0.879598 12.242644 0.290283 -0.956941 0.000000 0.876311 0.436037
-0.343199 0.828563 12.242644 0.290283 -0.956941 0.000000 0.891944 0.440779
-0.343200 0.828563 11.498417 0.290283 -0.956941 0.000000 0.891944 0.440779
-0.174960 0.879598 11.498417 0.290283 -0.956941 0.000000 0.876311 0.436037
-0.634152 0.634156 12.242644 0.773010 -0.634394 -0.000000 0.918980 0.458844
-0.745685 0.498253 12.242644 0.773010 -0.634394 -0.000000 0.929344 0.471473
-0.745685 0.498253 11.498417 0.773010 -0.634394 -0.000000 0.929344 0.471473
-0.634152 0.634155 11.498417 0.773010 -0.634394 -0.000000 0.918980 0.458844
-0.879596 0.174964 12.242644 0.995185 -0.098018 -0.000000 0.941787 0.501513
-0.896828 0.000002 12.242644 0.995185 -0.098018 -0.000000 0.943389 0.517771
-0.896828 0.000002 11.498417 0.995185 -0.098018 -0.000000 0.943389 0.517771
-0.879596 0.174964 11.498417 0.995185 -0.098018 -0.000000 0.941787 0.501513
-0.828561 -0.343200 12.242644 0.881922 0.471396 -0.000000 0.937045 0.549663
-0.745686 -0.498250 12.242644 0.881922 0.471396 -0.000000 0.929344 0.564070
-0.745686 -0.498250 11.498417 0.881922 0.471396 -0.000000 0.929344 0.564070
-0.828561 -0.343200 11.498417 0.881922 0.471396 -0.000000 0.937045 0.549663
-0.498251 -0.745685 12.242644 0.471397 0.881921 -0.000000 0.906352 0.587063
-0.343201 -0.828561 12.242644 0.471397 0.881921 -0.000000 0.891944 0.594764
-0.343201 -0.828561 11.498417 0.471397 0.881921 -0.000000 0.891944 0.594764
-0.498251 -0.745685 11.498417 0.471397 0.881921 -0.000000 0.906352 0.587063
0.000001 -0.896828 12.242644 -0.098017 0.995185 -0.000000 0.860053 0.601107
0.174963 -0.879596 12.242644 -0.098017 0.995185 -0.000000 0.843795 0.599506
0.174963 -0.879596 11.498417 -0.098017 0.995185 -0.000000 0.843795 0.599506
0.000001 -0.896828 11.498417 -0.098017 0.995185 -0.000000 0.860053 0.601107
0.498252 -0.745685 12.242644 -0.634393 0.773010 -0.000000 0.813754 0.587063
0.634155 -0.634153 12.242644 -0.634393 0.773010 -0.000000 0.801126 0.576699
0.634155 -0.634153 11.498417 -0.634393 0.773010 -0.000000 0.801126 0.576699
0.498252 -0.745685 11.498417 -0.634393 0.773010 -0.000000 0.813754 0.587063
0.828563 -0.343201 12.242644 -0.956940 0.290285 0.000000 0.783061 0.549663
0.879597 -0.174962 12.242644 -0.956940 0.290285 0.000000 0.778319 0.534029
0.879597 -0.174962 11.498417 -0.956940 0.290285 0.000000 0.778319 0.534029
0.828563 -0.343201 11.498417 -0.956940 0.290285 0.000000 0.783061 0.549663
0.879597 0.174964 12.242644 -0.956940 -0.290285 0.000000 0.778319 0.501513
0.828563 0.343202 12.242644 -0.956940 -0.290285 0.000000 0.783061 0.485880
0.828563 0.343202 11.498417 -0.956940 -0.290285 0.000000 0.783061 0.485880
0.879597 0.174964 11.498417 -0.956940 -0.290285 0.000000 0.778319 0.501513
0.634155 0.634155 12.242644 -0.634393 -0.773010 0.000000 0.801126 0.458844
0.498252 0.745687 12.242644 -0.634393 -0.773010 0.000000 0.813754 0.448480
0.498252 0.745687 11.498417 -0.634393 -0.773010 0.000000 0.813754 0.448480
0.634155 0.634155 11.498417 -0.634393 -0.773010 0.000000 0.801126 0.458844
0.174964 0.879597 12.242644 -0.098017 -0.995185 0.000000 0.843795 0.436037
0.000001 0.896830 12.242644 -0.098017 -0.995185 0.000000 0.860053 0.434436
0.000001 0.896830 11.498417 -0.098017 -0.995185 0.000000 0.860053 0.434436
0.174963 0.879597 11.498417 -0.098017 -0.995185 0.000000 0.843795 0.436037
-0.343199 0.828563 12.242644 0.471395 -0.881922 0.000000 0.891944 0.440779
-0.498250 0.745688 12.242644 0.471395 -0.881922 0.000000 0.906352 0.448480
-0.498250 0.745687 11.498417 0.471395 -0.881922 0.000000 0.906352 0.448480
-0.343200 0.828563 11.498417 0.471395 -0.881922 0.000000 0.891944 0.440779
-0.745685 0.498253 12.242644 0.881921 -0.471398 -0.000000 0.929344 0.471473
-0.828561 0.343203 12.242644 0.881921 -0.471398 -0.000000 0.937045 0.485880
-0.828561 0.343203 11.498417 0.881921 -0.471398 -0.000000 0.937045 0.485880
-0.745685 0.498253 11.498417 0.881921 -0.471398 -0.000000 0.929344 0.471473
-0.896828 0.000002 12.242644 0.995185 0.098016 -0.000000 0.943389 0.517771
-0.879596 -0.174961 12.242644 0.995185 0.098016 -0.000000 0.941787 0.534029
-0.879596 -0.174961 11.498417 0.995185 0.098016 -0.000000 0.941787 0.534029
-0.896828 0.000002 11.498417 0.995185 0.098016 -0.000000 0.943389 0.517771
-0.745686 -0.498250 12.242644 0.773011 0.634393 -0.000000 0.929344 0.564070
-0.634153 -0.634153 12.242644 0.773011 0.634393 -0.000000 0.918980 0.576699
-0.634153 -0.634153 11.498417 0.773011 0.634393 -0.000000 0.918980 0.576699
-0.745686 -0.498250 11.498417 0.773011 0.634393 -0.000000 0.929344 0.564070
-0.343201 -0.828561 12.242644 0.290285 0.956940 -0.000000 0.891944 0.594764
-0.174962 -0.879596 12.242644 0.290285 0.956940 -0.000000 0.876311 0.599506
-0.174962 -0.879596 11.498417 0.290285 0.956940 -0.000000 0.876311 0.599506
-0.343201 -0.828561 11.498417 0.290285 0.956940 -0.000000 0.891944 0.594764
0.174963 -0.879596 12.242644 -0.290284 0.956940 -0.000000 0.843795 0.599506
0.343202 -0.828561 12.242644 -0.290284 0.956940 -0.000000 0.828162 0.594764
0.343202 -0.828561 11.498417 -0.290284 0.956940 -0.000000 0.828162 0.594764
0.174963 -0.879596 11.498417 -0.290284 0.956940 -0.000000 0.843795 0.599506
0.634155 -0.634153 12.242644 -0.773010 0.634393 0.000000 0.801126 0.576699
0.745687 -0.498251 12.242644 -0.773010 0.634393 0.000000 0.790762 0.564070
0.745687 -0.498251 11.498417 -0.773010 0.634393 0.000000 0.790762 0.564070
0.634155 -0.634153 11.498417 -0.773010 0.634393 0.000000 0.801126 0.576699
0.879597 -0.174962 12.242644 -0.995185 0.098017 0.000000 0.778319 0.534029
0.896830 0.000001 12.242644 -0.995185 0.098017 0.000000 0.776717 0.517771
0.896830 0.000001 11.498417 -0.995185 0.098017 0.000000 0.776717 0.517771
0.879597 -0.174962 11.498417 -0.995185 0.098017 0.000000 0.778319 0.534029
0.828563 0.343202 12.242644 -0.881921 -0.471397 0.000000 0.783061 0.485880
0.745687 0.498252 12.242644 -0.881921 -0.471397 0.000000 0.790762 0.471473
0.745687 0.498252 11.498417 -0.881921 -0.471397 0.000000 0.790762 0.471473
0.828563 0.343202 11.498417 -0.881921 -0.471397 0.000000 0.783061 0.485880
0.498252 0.745687 12.242644 -0.471397 -0.881921 0.000000 0.813754 0.448480
0.343202 0.828563 12.242644 -0.471397 -0.881921 0.000000 0.828162 0.440779
0.343202 0.828563 11.498417 -0.471397 -0.881921 0.000000 0.828162 0.440779
0.498252 0.745687 11.498417 -0.471397 -0.881921 0.000000 0.813754 0.448480
0.000001 0.896830 12.242644 0.098017 -0.995185 0.000000 0.860053 0.434436
-0.174960 0.879598 12.242644 0.098017 -0.995185 0.000000 0.876311 0.436037
-0.174960 0.879598 11.498417 0.098017 -0.995185 0.000000 0.876311 0.436037
0.000001 0.896830 11.498417 0.098017 -0.995185 0.000000 0.860053 0.434436
-0.498250 0.745688 12.242644 0.634392 -0.773011 0.000000 0.906352 0.448480
-0.634152 0.634156 12.242644 0.634392 -0.773011 0.000000 0.918980 0.458844
-0.634152 0.634155 11.498417 0.634392 -0.773011 0.000000 0.918980 0.458844
-0.498250 0.745687 11.498417 0.634392 -0.773011 0.000000 0.906352 0.448480
-0.828561 0.343203 12.242644 0.956940 -0.290286 -0.000000 0.937045 0.485880
-0.879596 0.174964 12.242644 0.956940 -0.290286 -0.000000 0.941787 0.501513
-0.879596 0.174964 11.498417 0.956940 -0.290286 -0.000000 0.941787 0.501513
-0.828561 0.343203 11.498417 0.956940 -0.290286 -0.000000 0.937045 0.485880
-0.879596 -0.174961 12.242644 0.956941 0.290284 -0.000000 0.941787 0.534029
-0.828561 -0.343200 12.242644 0.956941 0.290284 -0.000000 0.937045 0.549663
-0.828561 -0.343200 11.498417 0.956941 0.290284 -0.000000 0.937045 0.549663
-0.879596 -0.174961 11.498417 0.956941 0.290284 -0.000000 0.941787 0.534029
-0.634153 -0.634153 12.242644 0.634394 0.773010 -0.000000 0.918980 0.576699
-0.498251 -0.745685 12.242644 0.634394 0.773010 -0.000000 0.906352 0.587063
-0.498251 -0.745685 11.498417 0.634394 0.773010 -0.000000 0.906352 0.587063
-0.634153 -0.634153 11.498417 0.634394 0.773010 -0.000000 0.918980 0.576699
-0.174962 -0.879596 12.242644 0.098017 0.995185 -0.000000 0.876311 0.599506
0.000001 -0.896828 12.242644 0.098017 0.995185 -0.000000 0.860053 0.601107
0.000001 -0.896828 11.498417 0.098017 0.995185 -0.000000 0.860053 0.601107
-0.174962 -0.879596 11.498417 0.098017 0.995185 -0.000000 0.876311 0.599506
4 0 1 2 3
4 4 5 6 7
4 8 9 10 11
4 12 13 14 15
4 16 17 18 19
4 20 21 22 23
4 24 25 26 27
4 28 29 30 31
4 32 33 34 35
4 36 37 38 39
4 40 41 42 43
4 44 45 46 47
4 5 48 49 6
4 9 50 51 10
4 13 52 53 14
4 17 54 55 18
4 21 56 57 22
4 25 58 59 26
4 29 60 61 30
4 33 62 63 34
4 37 64 65 38
4 41 66 67 42
4 45 4 7 46
4 48 8 11 49
4 50 12 15 51
4 52 16 19 53
4 54 20 23 55
4 56 24 27 57
4 58 28 31 59
4 60 32 35 61
4 62 36 39 63
4 64 40 43 65
4 66 44 47 67
3 68 69 70
3 68 70 71
3 68 71 72
3 71 73 72
3 73 74 72
3 73 75 74
3 75 76 74
3 75 77 76
3 77 78 76
3 77 79 78
3 79 80 78
3 79 81 80
3 81 82 80
3 81 83 82
3 83 84 82
3 83 85 84
3 85 86 84
3 85 87 86
3 87 88 86
3 87 89 88
3 89 90 88
3 89 91 90
3 91 92 90
3 91 93 92
3 93 94 92
3 93 95 94
3 95 96 94
3 95 97 96
3 97 98 96
3 97 99 98
4 100 101 102 103
4 104 105 106 107
4 108 109 110 111
4 112 113 114 115
4 116 117 118 119
4 120 121 122 123
4 124 125 126 127
4 128 129 130 131
4 132 133 134 135
4 136 137 138 139
4 140 141 142 143
4 144 145 146 147
4 148 149 150 151
4 152 153 154 155
4 156 157 158 159
4 160 161 162 163
4 164 165 166 167
4 168 169 170 171
4 172 173 174 175
4 176 177 178 179
4 180 181 182 183
4 184 185 186 187
4 188 189 190 191
4 192 193 194 195
4 196 197 198 199
4 200 201 202 203
4 204 205 206 207
4 208 209 210 211
4 212 213 214 215
4 216 217 218 219
4 220 221 222 223
