{
	"asset":{
		"generator":"Khronos glTF Blender I/O v3.6.28",
		"version":"2.0"
	},
	"scene":0,
	"scenes":[
		{
			"name":"Scene",
			"nodes":[
				0,
				1,
				2,
				3
			]
		}
	],
	"nodes":[
		{
			"mesh":0,
			"name":"Cylinder.003"
		},
		{
			"mesh":1,
			"name":"Cylinder.001"
		},
		{
			"mesh":2,
			"name":"Cylinder.002"
		},
		{
			"mesh":3,
			"name":"Cylinder"
		}
	],
	"materials":[
		{
			"doubleSided":true,
			"name":"None",
			"pbrMetallicRoughness":{
				"baseColorFactor":[
					0.800000011920929,
					0.800000011920929,
					0.800000011920929,
					1
				],
				"metallicFactor":0,
				"roughnessFactor":0.5
			}
		}
	],
	"meshes":[
		{
			"name":"Cylinder.003",
			"primitives":[
				{
					"attributes":{
						"POSITION":0,
						"NORMAL":1,
						"TEXCOORD_0":2
					},
					"indices":3,
					"material":0
				}
			]
		},
		{
			"name":"Cylinder.001",
			"primitives":[
				{
					"attributes":{
						"POSITION":4,
						"NORMAL":5,
						"TEXCOORD_0":6
					},
					"indices":7,
					"material":0
				}
			]
		},
		{
			"name":"Cylinder.002",
			"primitives":[
				{
					"attributes":{
						"POSITION":8,
						"NORMAL":9,
						"TEXCOORD_0":10
					},
					"indices":11,
					"material":0
				}
			]
		},
		{
			"name":"Cylinder",
			"primitives":[
				{
					"attributes":{
						"POSITION":12,
						"NORMAL":13,
						"TEXCOORD_0":14
					},
					"indices":15,
					"material":0
				}
			]
		}
	],
	"accessors":[
		{
			"bufferView":0,
			"componentType":5126,
			"count":336,
			"max":[
				0.3538798391819,
				1.0673049688339233,
				3.341277837753296
			],
			"min":[
				-0.2840576171875,
				0.7860672473907471,
				-2.2399613857269287
			],
			"type":"VEC3"
		},
		{
			"bufferView":1,
			"componentType":5126,
			"count":336,
			"type":"VEC3"
		},
		{
			"bufferView":2,
			"componentType":5126,
			"count":336,
			"type":"VEC2"
		},
		{
			"bufferView":3,
			"componentType":5123,
			"count":624,
			"type":"SCALAR"
		},
		{
			"bufferView":4,
			"componentType":5126,
			"count":472,
			"max":[
				1.240017294883728,
				1.1963483095169067,
				6.322399139404297
			],
			"min":[
				-1.0724502801895142,
				-1.1313753128051758,
				-0.8944568634033203
			],
			"type":"VEC3"
		},
		{
			"bufferView":5,
			"componentType":5126,
			"count":472,
			"type":"VEC3"
		},
		{
			"bufferView":6,
			"componentType":5126,
			"count":472,
			"type":"VEC2"
		},
		{
			"bufferView":7,
			"componentType":5123,
			"count":816,
			"type":"SCALAR"
		},
		{
			"bufferView":8,
			"componentType":5126,
			"count":224,
			"max":[
				0.8553813695907593,
				0.8439615964889526,
				6.514840126037598
			],
			"min":[
				-0.6656599640846252,
				-0.6771558523178101,
				5.93438720703125
			],
			"type":"VEC3"
		},
		{
			"bufferView":9,
			"componentType":5126,
			"count":224,
			"type":"VEC3"
		},
		{
			"bufferView":10,
			"componentType":5126,
			"count":224,
			"type":"VEC2"
		},
		{
			"bufferView":11,
			"componentType":5123,
			"count":474,
			"type":"SCALAR"
		},
		{
			"bufferView":12,
			"componentType":5126,
			"count":527,
			"max":[
				0.8553813695907593,
				0.8439615964889526,
				6.514840126037598
			],
			"min":[
				-0.783542275428772,
				-0.6771560907363892,
				-6.472742080688477
			],
			"type":"VEC3"
		},
		{
			"bufferView":13,
			"componentType":5126,
			"count":527,
			"type":"VEC3"
		},
		{
			"bufferView":14,
			"componentType":5126,
			"count":527,
			"type":"VEC2"
		},
		{
			"bufferView":15,
			"componentType":5123,
			"count":2394,
			"type":"SCALAR"
		}
	],
	"bufferViews":[
		{
			"buffer":0,
			"byteLength":4032,
			"byteOffset":0,
			"target":34962
		},
		{
			"buffer":0,
			"byteLength":4032,
			"byteOffset":4032,
			"target":34962
		},
		{
			"buffer":0,
			"byteLength":2688,
			"byteOffset":8064,
			"target":34962
		},
		{
			"buffer":0,
			"byteLength":1248,
			"byteOffset":10752,
			"target":34963
		},
		{
			"buffer":0,
			"byteLength":5664,
			"byteOffset":12000,
			"target":34962
		},
		{
			"buffer":0,
			"byteLength":5664,
			"byteOffset":17664,
			"target":34962
		},
		{
			"buffer":0,
			"byteLength":3776,
			"byteOffset":23328,
			"target":34962
		},
		{
			"buffer":0,
			"byteLength":1632,
			"byteOffset":27104,
			"target":34963
		},
		{
			"buffer":0,
			"byteLength":2688,
			"byteOffset":28736,
			"target":34962
		},
		{
			"buffer":0,
			"byteLength":2688,
			"byteOffset":31424,
			"target":34962
		},
		{
			"buffer":0,
			"byteLength":1792,
			"byteOffset":34112,
			"target":34962
		},
		{
			"buffer":0,
			"byteLength":948,
			"byteOffset":35904,
			"target":34963
		},
		{
			"buffer":0,
			"byteLength":6324,
			"byteOffset":36852,
			"target":34962
		},
		{
			"buffer":0,
			"byteLength":6324,
			"byteOffset":43176,
			"target":34962
		},
		{
			"buffer":0,
			"byteLength":4216,
			"byteOffset":49500,
			"target":34962
		},
		{
			"buffer":0,
			"byteLength":4788,
			"byteOffset":53716,
			"target":34963
		}
	],
	"buffers":[
		{
			"byteLength":58504,
			"uri":"AGM-65.bin"
		}
	]
}
