{
	"asset":{
		"generator":"Khronos glTF Blender I/O v3.6.28",
		"version":"2.0"
	},
	"scene":0,
	"scenes":[
		{
			"name":"Scene",
			"nodes":[
				0,
				1,
				2
			]
		}
	],
	"nodes":[
		{
			"mesh":0,
			"name":"Cube.001"
		},
		{
			"mesh":1,
			"name":"Cube",
			"translation":[
				0,
				-0.7534674406051636,
				0
			]
		},
		{
			"mesh":2,
			"name":"Cube.002"
		}
	],
	"materials":[
		{
			"doubleSided":true,
			"name":"Material",
			"pbrMetallicRoughness":{
				"baseColorFactor":[
					0.013495025224983692,
					0.2956921458244324,
					0,
					1
				],
				"metallicFactor":0,
				"roughnessFactor":0.5
			}
		},
		{
			"doubleSided":true,
			"name":"Material.001",
			"pbrMetallicRoughness":{
				"baseColorFactor":[
					0.19598843157291412,
					0.1795041412115097,
					0.1795041412115097,
					1
				],
				"metallicFactor":0,
				"roughnessFactor":0.4000000059604645
			}
		},
		{
			"doubleSided":true,
			"name":"Material.002",
			"pbrMetallicRoughness":{
				"baseColorFactor":[
					0.800000011920929,
					0.800000011920929,
					0.800000011920929,
					1
				],
				"metallicFactor":0,
				"roughnessFactor":0.4000000059604645
			}
		}
	],
	"meshes":[
		{
			"name":"Cube.001",
			"primitives":[
				{
					"attributes":{
						"POSITION":0,
						"NORMAL":1,
						"TEXCOORD_0":2
					},
					"indices":3,
					"material":0
				}
			]
		},
		{
			"name":"Cube.002",
			"primitives":[
				{
					"attributes":{
						"COLOR_0":4,
						"POSITION":5,
						"NORMAL":6,
						"TEXCOORD_0":7
					},
					"indices":8,
					"material":1
				}
			]
		},
		{
			"name":"Cube.007",
			"primitives":[
				{
					"attributes":{
						"POSITION":9,
						"NORMAL":10,
						"TEXCOORD_0":11
					},
					"indices":12,
					"material":2
				}
			]
		}
	],
	"accessors":[
		{
			"bufferView":0,
			"componentType":5126,
			"count":400,
			"max":[
				190000,
				-1,
				10000
			],
			"min":[
				-10000,
				-1,
				-190000
			],
			"type":"VEC3"
		},
		{
			"bufferView":1,
			"componentType":5126,
			"count":400,
			"type":"VEC3"
		},
		{
			"bufferView":2,
			"componentType":5126,
			"count":400,
			"type":"VEC2"
		},
		{
			"bufferView":3,
			"componentType":5123,
			"count":600,
			"type":"SCALAR"
		},
		{
			"bufferView":4,
			"componentType":5123,
			"count":4,
			"normalized":true,
			"type":"VEC4"
		},
		{
			"bufferView":5,
			"componentType":5126,
			"count":4,
			"max":[
				171.41427612304688,
				-0.2290511131286621,
				7.098104000091553
			],
			"min":[
				-2.359224319458008,
				-0.2290511131286621,
				-1.838219165802002
			],
			"type":"VEC3"
		},
		{
			"bufferView":6,
			"componentType":5126,
			"count":4,
			"type":"VEC3"
		},
		{
			"bufferView":7,
			"componentType":5126,
			"count":4,
			"type":"VEC2"
		},
		{
			"bufferView":8,
			"componentType":5123,
			"count":6,
			"type":"SCALAR"
		},
		{
			"bufferView":9,
			"componentType":5126,
			"count":40,
			"max":[
				38.201446533203125,
				7.297180652618408,
				-14.003499984741211
			],
			"min":[
				34.55079650878906,
				-1.089468002319336,
				-17.654146194458008
			],
			"type":"VEC3"
		},
		{
			"bufferView":10,
			"componentType":5126,
			"count":40,
			"type":"VEC3"
		},
		{
			"bufferView":11,
			"componentType":5126,
			"count":40,
			"type":"VEC2"
		},
		{
			"bufferView":12,
			"componentType":5123,
			"count":60,
			"type":"SCALAR"
		}
	],
	"bufferViews":[
		{
			"buffer":0,
			"byteLength":4800,
			"byteOffset":0,
			"target":34962
		},
		{
			"buffer":0,
			"byteLength":4800,
			"byteOffset":4800,
			"target":34962
		},
		{
			"buffer":0,
			"byteLength":3200,
			"byteOffset":9600,
			"target":34962
		},
		{
			"buffer":0,
			"byteLength":1200,
			"byteOffset":12800,
			"target":34963
		},
		{
			"buffer":0,
			"byteLength":32,
			"byteOffset":14000,
			"target":34962
		},
		{
			"buffer":0,
			"byteLength":48,
			"byteOffset":14032,
			"target":34962
		},
		{
			"buffer":0,
			"byteLength":48,
			"byteOffset":14080,
			"target":34962
		},
		{
			"buffer":0,
			"byteLength":32,
			"byteOffset":14128,
			"target":34962
		},
		{
			"buffer":0,
			"byteLength":12,
			"byteOffset":14160,
			"target":34963
		},
		{
			"buffer":0,
			"byteLength":480,
			"byteOffset":14172,
			"target":34962
		},
		{
			"buffer":0,
			"byteLength":480,
			"byteOffset":14652,
			"target":34962
		},
		{
			"buffer":0,
			"byteLength":320,
			"byteOffset":15132,
			"target":34962
		},
		{
			"buffer":0,
			"byteLength":120,
			"byteOffset":15452,
			"target":34963
		}
	],
	"buffers":[
		{
			"byteLength":15572,
			"uri":"testmap.bin"
		}
	]
}
